<?xml version="1.0" encoding="utf-8"?>
<svg xmlns="http://www.w3.org/2000/svg" viewBox="97.1138 91.5441 305.7745 304.5389" width="305.774px" height="304.539px" preserveAspectRatio="none"><g transform="matrix(0.05984700098633766, 0, 0, -0.05962900444865227, 97.1171875, 396.0830078125)" fill="#000000" stroke="none" style="" id="object-0"><path d="M202 5095 c-55 -17 -114 -58 -147 -101 -59 -77 -55 47 -55 -1826 0 -1668 1 -1724 19 -1765 25 -54 92 -120 150 -147 l46 -21 1376 -3 1376 -2 106 -373 c97 -335 110 -375 137 -399 32 -30 67 -35 103 -17 12 6 78 67 147 135 l125 124 350 -350 350 -350 50 0 49 0 349 347 c192 192 355 361 364 377 32 61 27 67 -347 441 l-350 350 124 125 c68 69 129 135 135 147 18 36 13 71 -16 103 -26 28 -82 46 -743 235 -393 113 -723 208 -732 211 -16 5 -18 50 -20 679 l-3 675 -28 27 -27 28 -1280 0 -1280 0 -27 -28 -28 -27 0 -800 0 -800 28 -27 27 -28 1103 -3 1103 -2 67 -233 c37 -127 76 -262 86 -300 l20 -67 -1329 2 -1330 3 -27 28 -28 27 -3 1270 -2 1270 1970 0 1970 0 2 -670 3 -670 28 -27 c38 -38 96 -38 134 0 l28 27 0 1098 0 1097 -21 46 c-28 60 -93 125 -153 153 l-46 21 -1930 2 c-1600 1 -1937 -1 -1973 -12z m3895 -218 l28 -27 3 -310 3 -310 -1971 0 -1971 0 3 309 c3 293 4 310 23 331 11 12 29 26 40 31 11 4 874 7 1917 6 l1898 -2 27 -28z m-1147 -1902 c0 -316 -1 -575 -3 -575 -2 0 -41 11 -88 25 -113 33 -143 32 -180 -4 -33 -34 -37 -69 -14 -143 l14 -48 -1004 0 -1005 0 0 660 0 660 1140 0 1140 0 0 -575z m682 -980 c392 -113 719 -208 727 -210 9 -4 -21 -41 -87 -109 -103 -105 -119 -134 -107 -184 4 -18 126 -147 356 -377 l349 -350 -267 -268 -268 -267 -350 349 c-230 230 -359 352 -377 356 -50 12 -79 -4 -184 -107 -68 -66 -105 -96 -109 -87 -11 32 -415 1443 -415 1451 0 4 4 8 9 8 5 0 330 -92 723 -205z" style="fill: rgb(0, 226, 44);"/><path d="M574 4660 c-54 -21 -72 -105 -34 -153 27 -34 78 -44 118 -23 37 19 52 44 52 86 0 42 -15 67 -50 85 -32 17 -54 18 -86 5z" style="fill: rgb(0, 226, 44);"/><path d="M1018 4653 c-64 -41 -63 -128 2 -166 44 -27 78 -21 117 18 31 31 35 40 30 72 -12 72 -91 113 -149 76z" style="fill: rgb(0, 226, 44);"/><path d="M1484 4660 c-54 -21 -72 -105 -34 -153 27 -34 78 -44 118 -23 37 19 52 44 52 86 0 42 -15 67 -50 85 -32 17 -54 18 -86 5z" style="fill: rgb(0, 226, 44);"/><path d="M2265 4659 c-58 -33 -73 -106 -31 -152 13 -14 35 -29 48 -32 12 -3 346 -4 740 -3 l718 3 27 27 c38 39 38 97 0 136 l-27 27 -728 2 c-518 2 -733 -1 -747 -8z" style="fill: rgb(0, 226, 44);"/><path d="M1323 3340 c-12 -5 -29 -19 -37 -32 -26 -41 -257 -741 -258 -782 0 -33 5 -45 31 -68 17 -15 43 -28 57 -28 39 0 81 26 96 60 l13 30 140 0 140 0 13 -30 c15 -34 57 -60 96 -60 14 0 40 13 58 29 27 24 32 36 31 68 -1 21 -56 202 -124 403 -97 288 -128 371 -150 393 -28 28 -64 34 -106 17z m81 -518 l35 -102 -74 0 -74 0 36 105 c20 58 38 103 40 102 2 -2 19 -50 37 -105z" style="fill: rgb(0, 226, 44);"/><path d="M1975 3341 c-11 -5 -29 -19 -40 -31 -19 -21 -20 -36 -20 -421 l0 -399 28 -27 c27 -28 28 -28 160 -27 112 0 141 4 189 23 82 32 146 78 201 146 195 242 94 603 -201 716 -44 16 -84 22 -177 25 -66 2 -129 0 -140 -5z m242 -204 c106 -39 176 -138 176 -247 0 -136 -114 -257 -245 -259 l-38 -1 0 260 0 260 38 -1 c20 0 51 -6 69 -12z" style="fill: rgb(0, 226, 44);"/><path d="M4164 2396 c-44 -44 -45 -83 -5 -128 24 -27 36 -33 70 -33 91 0 131 105 63 166 -45 40 -84 39 -128 -5z" style="fill: rgb(0, 226, 44);"/><path d="M544 1820 c-56 -23 -72 -108 -30 -157 l24 -28 386 0 386 0 26 27 c37 37 37 99 0 136 l-26 27 -373 2 c-204 1 -382 -2 -393 -7z" style="fill: rgb(0, 226, 44);"/><path d="M1625 1821 c-60 -25 -79 -110 -35 -156 61 -65 170 -23 170 65 0 70 -70 117 -135 91z" style="fill: rgb(0, 226, 44);"/></g></svg>