<!DOCTYPE svg PUBLIC "-//W3C//DTD SVG 1.1//EN" "http://www.w3.org/Graphics/SVG/1.1/DTD/svg11.dtd">
<!-- Uploaded to: SVG Repo, www.svgrepo.com, Transformed by: SVG Repo Mixer Tools -->
<svg width="800px" height="800px" viewBox="0 0 24 24" fill="none" xmlns="http://www.w3.org/2000/svg" stroke="#f50000">
<g id="SVGRepo_bgCarrier" stroke-width="0"/>
<g id="SVGRepo_tracerCarrier" stroke-linecap="round" stroke-linejoin="round"/>
<g id="SVGRepo_iconCarrier">
<path d="M12 22C17.5228 22 22 17.5228 22 12C22 6.47715 17.5228 2 12 2C6.47715 2 2 6.47715 2 12C2 17.5228 6.47715 22 12 22Z" stroke="#f50000" stroke-linecap="round" stroke-linejoin="round" stroke-width="2"/>
<path d="M8 7H10.9999M16 7H10.9999M15.9999 10H13.9999M7.99695 10H13.4515H13.9999M10.9999 7C11.9999 7 13.9999 7.6 13.9999 10M12.9999 17L7.99695 13H10.9999C11.9999 13 13.9999 12.4 13.9999 10" stroke="#f50000" stroke-linecap="round" stroke-linejoin="round" stroke-width="2"/>
</g>
</svg>