<?xml version="1.0" encoding="utf-8"?>
<svg xmlns="http://www.w3.org/2000/svg" viewBox="284.3408 88.5955 196.2662 196.0045" width="196.266px" height="196.005px" preserveAspectRatio="none"><g id="object-0"><path d="M 362.207 90.2 C 338.907 95.3 317.907 108.7 303.507 127.7 C 297.507 135.7 289.707 151.8 287.107 161.8 C 283.907 173.8 283.407 193.9 286.007 206.3 C 292.307 237.1 311.207 261.3 339.707 275.4 C 355.407 283.1 362.507 284.6 382.707 284.6 C 402.307 284.6 409.707 283.1 424.007 276.3 C 445.907 265.8 461.407 250.5 471.607 229.2 C 479.107 213.7 480.607 206.7 480.607 186.8 C 480.507 167.3 479.107 160.4 472.307 145.8 C 462.107 123.9 446.607 108.2 425.107 97.9 C 411.207 91.1 402.507 89.1 385.207 88.7 C 373.707 88.4 368.907 88.7 362.207 90.2 Z M 400.707 94.2 C 419.507 98.1 435.407 106.5 448.807 119.8 C 475.607 146.2 484.007 184.1 471.107 219.7 C 457.507 257.4 418.907 283 378.707 281 C 335.607 278.9 301.107 250.2 290.507 207.5 C 288.107 197.9 288.107 174.2 290.607 165.3 C 295.907 146.1 303.607 132.6 316.607 119.8 C 338.907 97.7 370.807 88 400.707 94.2 Z" stroke="none" style="fill: rgb(255, 0, 0);"/><path d="M 343.907 124 C 343.507 124.3 343.207 128.2 343.207 132.5 L 343.207 140.3 L 356.007 140.3 C 371.007 140.3 375.107 141.3 380.007 145.8 L 383.707 149.2 L 366.107 149.3 C 350.907 149.3 348.307 149.5 347.807 150.9 C 346.707 153.7 347.207 164.9 348.407 166.1 C 349.207 166.9 355.007 167.3 368.007 167.3 L 386.407 167.3 L 384.407 170.5 C 383.307 172.3 380.507 175.1 378.207 176.8 C 374.107 179.7 373.807 179.8 358.907 180.3 L 343.707 180.8 L 343.407 188.5 L 343.107 196.2 L 361.207 223.3 L 379.207 250.3 L 389.207 250.3 C 395.207 250.3 399.307 249.9 399.707 249.2 C 400.107 248.6 392.907 236.9 383.807 223.2 C 374.707 209.5 367.207 198.1 367.207 197.8 C 367.207 197.5 369.907 197.3 373.207 197.3 C 387.907 197.3 402.307 186 406.107 171.6 L 407.307 167.4 L 414.507 167.1 L 421.707 166.8 L 421.707 158.3 L 421.707 149.8 L 414.007 149.5 L 406.407 149.2 L 404.807 145.2 C 403.907 143.1 403.207 141.1 403.207 140.8 C 403.207 140.6 407.407 140.2 412.507 140.1 L 421.707 139.8 L 421.707 131.8 L 421.707 123.8 L 383.107 123.5 C 361.907 123.4 344.307 123.6 343.907 124 Z M 417.207 132.3 L 417.207 136.3 L 407.307 136.3 C 401.707 136.3 397.007 136.7 396.707 137.3 C 396.407 137.9 397.407 141.1 399.007 144.6 C 400.707 148 402.307 151.6 402.607 152.5 C 403.007 154 404.407 154.3 410.407 154.3 L 417.707 154.3 L 417.707 158 L 417.707 161.8 L 410.807 162.3 L 403.807 162.8 L 402.107 168.5 C 398.807 179.7 392.807 186.8 383.207 191 C 381.307 191.8 375.407 192.8 370.207 193.1 C 362.507 193.7 360.707 194.1 360.807 195.3 C 360.907 196.2 368.207 207.8 377.107 221.1 C 385.907 234.4 393.207 245.5 393.207 245.8 C 393.207 246.1 390.607 246.3 387.507 246.1 L 381.707 245.8 L 365.007 220.8 C 348.207 195.8 348.207 195.8 348.207 190.1 L 348.207 184.5 L 362.107 184.1 C 375.807 183.8 376.107 183.7 380.307 180.8 C 385.907 176.9 390.307 170.5 390.507 166.2 L 390.707 162.8 L 371.507 162.5 L 352.207 162.3 L 352.207 158.3 L 352.207 154.3 L 370.107 154.3 C 390.607 154.3 391.907 153.8 388.407 148.1 C 385.507 143.4 382.407 140.7 377.207 138.4 C 373.507 136.7 370.607 136.3 360.507 136.3 L 348.207 136.3 L 348.207 132.3 L 348.207 128.3 L 382.707 128.3 L 417.207 128.3 L 417.207 132.3 Z" stroke="none" style="fill: rgb(255, 0, 0);"/></g></svg>