<?xml version="1.0" encoding="utf-8"?>
<svg xmlns="http://www.w3.org/2000/svg" viewBox="63.3618 120.3022 320.6992 341.4116" width="320.699px" height="341.412px" preserveAspectRatio="none"><g transform="matrix(0.10000000149011612, 0, 0, -0.10000000149011612, -284.0390930175781, 802.8614501953125)" fill="#000000" stroke="none" id="object-0"><path d="M4950 6815 c-535 -78 -1004 -402 -1263 -869 -237 -430 -279 -961 -112 -1411 99 -266 265 -509 466 -684 119 -104 127 -110 213 -166 526 -343 1201 -365 1757 -57 261 145 491 374 638 634 l32 58 -23 9 c-237 89 -353 131 -363 131 -6 0 -36 -37 -65 -82 -30 -46 -95 -124 -145 -174 -399 -395 -1004 -485 -1505 -223 -174 91 -315 211 -435 370 -429 570 -307 1375 276 1809 373 278 900 326 1327 120 187 -90 360 -230 477 -386 l56 -74 37 19 c20 10 104 51 185 90 l148 70 -16 30 c-32 63 -167 230 -251 312 -257 248 -558 401 -914 464 -130 22 -399 28 -520 10z" style="fill: rgb(53, 149, 255);"/><path d="M4965 6037 c-177 -45 -332 -132 -455 -256 -123 -123 -208 -272 -251 -436 -33 -126 -33 -332 -1 -453 85 -319 338 -583 647 -676 131 -39 246 -50 375 -36 317 34 583 215 720 488 70 141 78 127 -112 199 l-163 61 -9 -64 -8 -64 -54 0 -54 0 0 150 0 150 -100 0 -100 0 0 -180 0 -180 -65 0 -65 0 0 310 0 310 -100 0 -100 0 0 -150 0 -150 -65 0 -65 0 0 105 0 105 -95 0 -95 0 0 -220 0 -220 -65 0 -66 0 14 27 c13 23 12 33 -6 82 -25 71 -33 211 -18 293 40 205 208 378 422 435 100 26 245 22 344 -10 100 -33 160 -71 250 -158 l70 -67 130 95 c72 52 137 98 144 103 12 7 10 15 -14 46 -93 122 -212 221 -346 287 -147 72 -217 89 -399 93 -137 3 -166 1 -245 -19z" style="fill: rgb(53, 149, 255);"/></g></svg>