<?xml version="1.0" encoding="utf-8"?>
<svg xmlns="http://www.w3.org/2000/svg" viewBox="25.168 56.2327 449.664 394.7513" width="449.664px" height="394.751px" preserveAspectRatio="none"><path d="M 426.119 218.289 L 370.157 218.289 L 304.848 130.917 C 306.827 125.264 307.874 119.335 307.951 113.356 C 307.951 69.448 259.648 42.006 221.004 63.959 C 203.071 74.149 192.022 92.978 192.022 113.356 C 192.022 119.529 193.274 125.347 195.124 130.917 L 129.815 218.289 L 73.854 218.289 C 46.966 218.289 25.168 239.738 25.168 266.196 L 25.168 403.076 C 25.168 429.535 46.966 450.984 73.854 450.984 L 426.147 450.984 C 453.036 450.984 474.832 429.535 474.832 403.076 L 474.832 266.196 C 474.81 239.737 453.009 218.296 426.119 218.289 Z M 154.074 357.769 C 156.328 361.301 157.442 366.516 157.442 373.387 L 157.442 390.455 L 139.372 390.455 L 139.372 376.576 C 139.372 373.373 139.205 370.717 138.913 368.609 C 138.665 366.658 137.833 364.823 136.52 363.34 C 135.325 361.996 133.745 361.041 131.985 360.602 C 129.688 360.145 127.345 359.943 125.002 360 L 99.894 360 L 99.894 390.47 L 81.935 390.47 L 81.935 298.349 L 127.965 298.349 C 140.081 298.349 148.288 300.676 152.586 305.345 C 156.342 309.506 158.205 316.294 158.205 325.724 C 158.205 335.964 156.815 342.685 154.074 345.887 C 151.598 348.859 147.467 350.87 141.625 351.911 L 141.625 352.266 C 147.092 352.772 151.251 354.607 154.074 357.769 Z M 211.233 155.529 C 221.813 165.059 235.628 170.36 249.973 170.393 C 264.309 170.36 278.115 165.059 288.686 155.529 L 335.605 218.302 L 164.313 218.302 L 211.233 155.529 Z M 235.937 390.455 L 171.408 390.455 L 171.408 298.335 L 235.687 298.335 L 235.687 313.447 L 189.393 313.447 L 189.393 336.539 L 233.322 336.539 L 233.322 350.898 L 189.393 350.898 L 189.393 375.343 L 235.937 375.343 L 235.937 390.455 Z M 336.884 390.455 L 306.81 390.455 L 267.11 313.461 L 266.373 313.461 L 267.375 351.664 L 267.861 390.47 L 249.764 390.47 L 249.764 298.349 L 279.601 298.349 L 319.789 375.359 L 320.275 375.359 L 318.786 298.349 L 336.884 298.349 L 336.884 390.455 Z M 418.024 313.447 L 390.453 313.447 L 390.453 390.442 L 372.467 390.442 L 372.467 313.447 L 345.133 313.447 L 345.133 298.335 L 418.024 298.335 L 418.024 313.447 Z M 137.995 316.747 C 139.442 318.827 140.137 322.754 140.137 328.559 C 140.137 334.855 139.26 339.113 137.522 341.329 C 136.186 342.685 134.669 343.616 132.986 344.122 C 131.303 344.628 128.882 344.875 125.753 344.875 L 99.894 344.875 L 99.894 313.461 L 125.239 313.461 C 128.522 313.461 131.192 313.653 133.223 314.049 C 135.089 314.364 136.778 315.319 137.995 316.747 Z" style="fill: rgb(113, 0, 255);" id="object-0"/></svg>