<?xml version="1.0" encoding="utf-8"?>
<svg xmlns="http://www.w3.org/2000/svg" viewBox="205.9403 109.675 90.6076 77.0979" width="90.6076px" height="77.0979px"><g id="object-0" transform="matrix(1, 0, 0, 1, 2.842170943040401e-14, 0)"><path d="M 228.743 123.775 C 217.143 131.575 207.243 138.575 206.543 139.375 C 205.043 141.275 206.543 144.675 208.843 144.675 C 209.643 144.675 219.343 138.575 230.243 131.175 C 241.243 123.775 250.743 117.675 251.343 117.675 C 251.943 117.675 261.343 123.775 272.343 131.175 C 283.243 138.575 292.843 144.675 293.743 144.675 C 295.943 144.675 297.443 141.275 295.943 139.475 C 294.043 137.075 252.843 109.675 251.143 109.675 C 250.343 109.675 240.243 115.975 228.743 123.775 Z" style="fill: rgb(67, 234, 104); stroke: rgb(105, 105, 105);"/><path d="M 235.443 130.875 L 220.243 141.175 L 220.543 158.175 L 220.743 175.175 L 238.543 175.475 C 255.543 175.675 256.243 175.675 256.243 173.775 C 256.243 171.275 257.543 170.475 262.043 170.275 C 264.643 170.175 265.843 169.675 266.043 168.475 C 266.343 166.875 264.843 166.675 250.043 166.475 L 233.743 166.175 L 233.743 153.675 L 233.743 141.175 L 250.643 140.875 C 264.343 140.675 267.843 140.875 269.143 142.075 C 270.043 142.875 272.043 144.775 273.643 146.175 C 275.843 148.275 276.743 148.575 277.343 147.475 C 277.843 146.775 278.243 145.875 278.243 145.375 C 278.243 144.975 279.443 144.175 280.943 143.575 C 282.443 143.075 283.143 142.275 282.643 141.775 C 280.843 140.175 253.343 121.675 252.043 121.175 C 251.343 120.875 243.843 125.275 235.443 130.875 Z" style="fill: rgb(67, 234, 104); stroke: rgb(105, 105, 105);"/><path d="M 258.043 143.475 L 252.243 143.775 L 252.243 153.675 L 252.243 163.675 L 259.543 163.675 C 266.343 163.575 266.543 163.575 263.743 162.275 C 257.643 159.675 256.443 151.375 261.243 146.475 C 262.943 144.775 264.243 143.375 264.043 143.275 C 263.843 143.275 261.143 143.275 258.043 143.475 Z" style="fill: rgb(67, 234, 104); stroke: rgb(105, 105, 105);"/><path d="M 236.243 153.675 L 236.243 163.675 L 243.243 163.675 L 250.243 163.675 L 250.243 153.675 L 250.243 143.675 L 243.243 143.675 L 236.243 143.675 L 236.243 153.675 Z" style="fill: rgb(67, 234, 104); stroke: rgb(105, 105, 105);"/><path d="M 262.943 148.475 C 259.243 152.475 262.243 160.675 267.243 160.675 C 272.243 160.675 275.343 151.975 271.643 148.275 C 269.543 146.075 264.943 146.275 262.943 148.475 Z M 269.243 151.275 C 269.943 152.975 269.843 154.475 269.143 155.775 C 267.743 158.475 265.843 157.675 265.443 154.275 C 264.743 148.775 267.543 146.575 269.243 151.275 Z" style="fill: rgb(67, 234, 104); stroke: rgb(105, 105, 105);"/><path d="M 278.743 150.475 C 277.543 152.475 274.743 157.675 272.343 161.875 C 269.643 166.875 268.543 169.675 269.443 169.675 C 270.843 169.675 271.143 169.075 278.643 155.375 C 281.643 149.875 282.943 146.675 282.043 146.675 C 281.343 146.675 279.843 148.375 278.743 150.475 Z" style="fill: rgb(67, 234, 104); stroke: rgb(105, 105, 105);"/><path d="M 282.243 156.375 C 279.743 157.275 278.243 159.875 278.243 163.175 C 278.243 169.175 283.243 171.975 287.743 168.475 C 289.643 166.975 290.243 165.575 290.243 162.675 C 290.243 160.675 289.643 158.475 289.043 157.875 C 287.243 156.475 284.043 155.775 282.243 156.375 Z M 285.743 163.275 C 285.743 165.975 285.343 167.175 284.343 167.175 C 282.443 167.175 281.343 163.675 282.343 160.875 C 283.643 157.275 285.743 158.775 285.743 163.275 Z" style="fill: rgb(67, 234, 104); stroke: rgb(105, 105, 105);"/><path d="M 259.243 174.175 C 259.243 174.975 260.143 175.675 261.243 175.675 C 263.043 175.675 263.243 176.375 263.243 181.175 C 263.243 184.175 263.743 186.675 264.243 186.675 C 264.843 186.675 265.243 184.175 265.243 181.175 C 265.243 176.375 265.443 175.675 267.243 175.675 C 268.343 175.675 269.243 174.975 269.243 174.175 C 269.243 173.075 268.043 172.675 264.243 172.675 C 260.443 172.675 259.243 173.075 259.243 174.175 Z" style="fill: rgb(67, 234, 104); stroke: rgb(105, 105, 105);"/><path d="M 272.343 174.875 C 268.843 184.175 268.643 189.975 271.943 184.875 C 272.843 183.675 274.043 182.675 274.743 182.675 C 275.443 182.675 276.643 183.675 277.543 184.875 C 280.043 188.675 280.543 186.175 278.543 179.475 C 276.543 172.575 273.943 170.675 272.343 174.875 Z M 276.243 179.875 C 276.243 180.375 275.543 180.675 274.743 180.675 C 273.243 180.675 272.743 178.575 273.943 177.375 C 274.643 176.675 276.243 178.475 276.243 179.875 Z" style="fill: rgb(67, 234, 104); stroke: rgb(105, 105, 105);"/><path d="M 282.243 173.175 C 282.243 173.575 282.943 175.075 283.743 176.775 C 285.143 179.475 285.143 179.975 283.543 182.675 C 281.343 186.375 282.743 187.975 285.343 184.675 C 286.943 182.575 287.343 182.375 288.243 183.675 C 288.743 184.475 289.243 185.475 289.243 185.875 C 289.243 186.775 292.243 186.975 292.243 186.075 C 292.243 185.775 291.443 184.175 290.543 182.675 C 289.043 180.075 289.043 179.475 290.243 176.975 C 291.043 175.475 291.843 173.875 292.043 173.375 C 292.243 172.975 291.643 172.675 290.743 172.675 C 289.843 172.675 288.843 173.575 288.543 174.675 C 288.243 175.775 287.743 176.675 287.343 176.675 C 287.043 176.675 286.143 175.775 285.443 174.675 C 284.343 172.875 282.243 171.875 282.243 173.175 Z" style="fill: rgb(67, 234, 104); stroke: rgb(105, 105, 105);"/></g></svg>