<?xml version="1.0" encoding="utf-8"?>
<svg xmlns="http://www.w3.org/2000/svg" viewBox="44.2825 48.4998 418.6405 408.6433" width="418.64px" height="408.643px" preserveAspectRatio="none"><path d="M 462.035 225.944 L 408.183 60.889 C 405.752 53.418 398.636 48.412 390.517 48.501 L 126.286 51.481 C 118.165 51.577 110.864 56.748 108.179 64.272 L 48.761 230.616 C 48.161 232.493 47.78 234.467 47.688 236.433 L 44.285 438.945 C 44.116 449.105 52.406 457.254 62.839 457.142 L 440.331 452.874 C 450.75 452.764 459.334 444.411 459.503 434.25 C 459.542 432.41 462.807 229.401 462.923 231.24 C 462.906 229.423 462.583 227.635 462.035 225.944 Z M 139.267 88.146 L 376.283 85.479 L 418.148 213.855 L 357.751 214.531 L 270.411 128.881 C 263.147 121.772 251.199 121.898 243.729 129.17 L 153.422 216.833 L 93.026 217.512 L 139.267 88.146 Z M 233.347 418.407 L 234.892 326.362 L 272.625 325.914 L 271.073 417.98 L 233.347 418.407 Z M 422.077 416.267 L 308.825 417.557 L 310.694 307.09 C 310.863 296.914 302.541 288.779 292.123 288.884 L 216.621 289.755 C 206.179 289.86 197.61 298.181 197.441 308.379 L 195.597 418.824 L 82.344 420.111 L 85.139 254.416 L 160.616 253.567 C 165.618 253.515 170.45 251.512 174.054 248.032 L 256.409 168.078 L 336.116 246.193 C 339.575 249.595 344.368 251.488 349.371 251.436 L 424.847 250.588 L 422.077 416.267 Z M 274.169 233.879 C 273.946 248.047 258.053 257.083 245.596 250.148 C 233.139 243.19 233.417 225.482 246.145 218.249 C 249.031 216.61 252.296 215.732 255.615 215.673 C 266.034 215.56 274.338 223.695 274.169 233.879 Z M 103.385 291.022 L 178.869 290.174 L 178.269 326.987 L 102.767 327.853 L 103.385 291.022 Z M 329.873 288.468 L 405.375 287.618 L 404.75 324.426 L 329.248 325.29 L 329.873 288.468 Z M 102.46 346.259 L 177.944 345.41 L 177.343 382.217 L 101.842 383.081 L 102.46 346.259 Z M 328.948 343.696 L 404.449 342.847 L 403.823 379.662 L 328.321 380.504 L 328.948 343.696 Z" style="fill: rgb(255, 57, 0); transform-origin: 254.989px 252.502px;" id="object-0"/></svg>